<svg width="187" height="187" viewBox="0 0 187 187" fill="none" xmlns="http://www.w3.org/2000/svg">
<path fill-rule="evenodd" clip-rule="evenodd" d="M24.1347 58.1726C29.0668 56.6065 32.9743 55.7026 37.0104 55.7026C41.0348 55.7026 44.9306 56.5987 49.8355 58.157C46.3682 42.3166 37.0104 23.562 37.0104 23.562C37.0104 23.562 27.376 43.0256 24.1347 58.1726ZM50.6458 66.6265L49.4147 66.2175C43.6294 64.2852 40.2362 63.4904 37.0104 63.4904C33.7847 63.4904 30.3914 64.2852 24.6061 66.2175L23.375 66.6265V163.812H50.6458V66.6265ZM66.2292 109.27V124.854H58.4375H74.0208V120.958C74.0208 119.925 74.4313 118.934 75.1619 118.203C75.8925 117.472 76.8834 117.062 77.9167 117.062C78.9499 117.062 79.9408 117.472 80.6714 118.203C81.402 118.934 81.8125 119.925 81.8125 120.958V124.854H89.6042V120.958C89.6042 119.925 90.0146 118.934 90.7452 118.203C91.4758 117.472 92.4668 117.062 93.5 117.062C94.5332 117.062 95.5242 117.472 96.2548 118.203C96.9854 118.934 97.3958 119.925 97.3958 120.958V124.854H105.187V120.958C105.187 119.925 105.598 118.934 106.329 118.203C107.059 117.472 108.05 117.062 109.083 117.062C110.117 117.062 111.107 117.472 111.838 118.203C112.569 118.934 112.979 119.925 112.979 120.958V124.854H128.562H120.771V109.27H66.2292ZM125.473 101.479H61.5269C59.54 96.9751 58.4375 91.7547 58.4375 85.8953C58.4375 71.2275 70.8068 60.5763 81.1736 51.6549C84.298 48.9667 87.2394 46.4345 89.6042 43.9957V31.3537H97.3958V43.9957C99.7606 46.4345 102.702 48.9667 105.826 51.6549C116.189 60.5763 128.562 71.2275 128.562 85.8953C128.562 91.7547 127.456 96.9751 125.473 101.479ZM136.354 163.812H163.625V66.4162C163.207 66.4165 162.791 66.3494 162.394 66.2175C156.609 64.2852 153.215 63.4904 149.99 63.4904C146.764 63.4904 143.371 64.2852 137.585 66.2175L136.354 66.6265V163.812ZM137.114 58.1726C142.046 56.6065 145.953 55.7026 149.99 55.7026C154.01 55.7026 157.91 56.5987 162.815 58.157C159.347 42.3166 149.99 23.562 149.99 23.562C149.99 23.562 140.355 43.0256 137.114 58.1726ZM128.562 163.812V132.645H58.4375V163.812H74.0208V159.449C74.0212 156.484 74.8674 153.581 76.4601 151.08C78.0528 148.579 80.3258 146.584 83.0124 145.33L93.5 140.437L103.988 145.33C106.675 146.585 108.948 148.58 110.541 151.081C112.134 153.583 112.98 156.487 112.979 159.453V163.812H128.562Z" fill="black"/>
</svg>
